<svg xmlns="http://www.w3.org/2000/svg" xmlns:xlink="http://www.w3.org/1999/xlink" aria-hidden="true" role="img" class="iconify iconify--logos" width="35.93" height="32" preserveAspectRatio="xMidYMid meet" viewBox="0 0 256 228"><path fill="#00D8FF" d="M210.483 73.824a171.49 171.49 0 0 0-8.24-2.597c.465-1.9.893-3.777 1.273-5.621 6.238-30.281 2.16-54.676-11.769-62.708-13.355-7.7-35.196.329-57.254 19.526a171.23 171.23 0 0 0-6.375 5.848 155.866 155.866 0 0 0-4.241-3.917C100.759 3.829 77.587-4.822 63.673 3.233 50.33 10.957 45.378 30.79 49.801 52.286a170.974 170.974 0 0 0 1.92 8.48c-2.93.932-5.748 1.924-8.44 2.98C17.309 83.498 0 98.307 0 113.668c0 15.865 18.582 31.778 46.812 41.427a145.52 145.52 0 0 0 6.921 2.165a167.467 167.467 0 0 0-2.01 9.138c-4.622 21.758-1.174 41.25 10.32 48.94 12.03 8.07 33.758 1.98 55.1-16.79a145.142 145.142 0 0 0 4.27-3.96c1.38 1.25 2.8 2.5 4.26 3.72 21.09 18.418 41.584 25.558 53.268 17.84 12.03-8.07 15.474-28.2 10.32-50.8a145.516 145.516 0 0 0-1.92-8.48c2.73-.932 5.44-1.924 8.12-2.98 28.23-9.649 46.812-25.562 46.812-41.427c0-15.361-17.309-30.17-45.517-40.844Zm-6.365 70.984c-13.067 4.67-27.589 7.891-42.624 9.521a165.867 165.867 0 0 0-6.716-19.521c14.24-2.1 27.9-5.1 40.4-8.8 23.8-7.1 38.17-16.2 38.17-22.3 0-8.1-16.1-18.2-42.1-25.3-2.5-.7-5.1-1.3-7.7-1.9a201.5 201.5 0 0 0 3.1-12.9c.1-.5.2-1 .3-1.5 18.1 5.1 31.1 13.4 31.1 20.1 0 8.1-16.1 18.2-42.1 25.3Zm-10.2 20.3c-2.4.8-4.9 1.6-7.4 2.3a165.217 165.217 0 0 0-5.1-12.1c2.2-.7 4.4-1.4 6.6-2.1 23.8-7.1 38.1-16.2 38.1-22.3 0-6.1-13.1-14.4-31.1-20.1 5.1-15.1 7.7-30.1 7.4-44.1 18.1 5.1 31.1 13.4 31.1 20.1 0 6.1-13.1 14.4-31.1 20.1a108.1 108.1 0 0 1-7.4 44.1c.1.6.2 1.1.3 1.6.1.5.2 1 .3 1.5Zm-31.2 12.1a183.8 183.8 0 0 1-7.4 2.1c-1.7-5.8-3.7-11.4-6.1-16.8 2.1-.6 4.2-1.2 6.2-1.9 1.5-.5 3-.9 4.4-1.4a161.4 161.4 0 0 0 2.9 17Zm-8.6-32.1c1.4 4.1 2.6 8.3 3.7 12.5-6.1 1.1-12.3 2-18.5 2.7a144.1 144.1 0 0 1-3.8-12.7c6.3-.8 12.5-1.7 18.6-2.5Zm-3.2-15.1c.8 3.8 1.5 7.6 2.1 11.4-5.9.5-11.9.8-17.8.8-6.1 0-12.1-.3-18.1-.8a142.1 142.1 0 0 1 2-11.4c6.1.5 12.1.8 18.1.8 5.9 0 11.9-.3 17.8-.8Zm-5.3-19.1c-.6 3.7-1.3 7.3-2.1 10.9-5.8-.4-11.6-1-17.4-1.8a140.8 140.8 0 0 1-1.7-10.9c6-.8 11.9-1.4 17.8-1.8 5.9.4 11.7 1 17.4 1.8Zm-8.1-18.6c-5.7-1-11.4-2.2-17.1-3.6a134.1 134.1 0 0 1-1.2-8.5c6-1.2 12-2.2 18.1-3 6.1.8 12.1 1.8 18.1 3 0 2.9-.4 5.8-.4 8.5-5.7 1.4-11.4 2.6-17.1 3.6Zm-12.6-15.1c-5.5-1.6-11-3.4-16.3-5.4a120.9 120.9 0 0 1-.6-6.1c5.6-2 11.3-3.8 17.1-5.4 5.8 1.6 11.5 3.4 17.1 5.4 0 2-.2 4-.6 6.1-5.3 2-10.8 3.8-16.3 5.4Zm-20.1-8.9c-5.1-2.3-10.1-4.8-14.9-7.5.3-1.9.3-3.8.3-5.7 4.9 2.7 9.9 5.2 14.9 7.5h-.3Zm-3.4-12.2c-4.7-2.8-9.3-5.8-13.7-9 0-1.8.1-3.6.1-5.4 4.5 3.2 9.1 6.2 13.7 9 0 1.8-.1 3.6-.1 5.4Zm-25.1 8.9c-5-2.3-10-4.8-14.9-7.5 0-1.9 0-3.8.3-5.7 4.9 2.7 9.9 5.2 14.9 7.5-.3 0-.3 1.9-.3 3.7Zm-3.4 12.2c-4.6-3.2-9.2-6.2-13.7-9 0-1.8 0-3.6.1-5.4 4.5 3.2 9.1 6.2 13.7 9 0 1.8-.1 3.6-.1 5.4Zm-7.2 18.6c-5.7-1.4-11.4-2.6-17.1-3.6a90.4 90.4 0 0 1-.4-8.5c6-1.2 12-2.2 18.1-3 6.1.8 12.1 1.8 18.1 3v8.5c-5.7 1-11.4 2.2-17.1 3.6Zm-12.6 15.1c-5.5-1.6-11-3.4-16.3-5.4a120.9 120.9 0 0 1-.6-6.1c5.6-2 11.3-3.8 17.1-5.4 5.8 1.6 11.5 3.4 17.1 5.4 0 2-.2 4-.6 6.1-5.3 2-10.8 3.8-16.3 5.4Zm-20.1 8.9c-5.1-2.3-10.1-4.8-14.9-7.5.3-1.9.3-3.8.3-5.7 4.9 2.7 9.9 5.2 14.9 7.5h-.3Zm-3.4 12.2c-4.7-2.8-9.3-5.8-13.7-9 0-1.8.1-3.6.1-5.4 4.5 3.2 9.1 6.2 13.7 9 0 1.8-.1 3.6-.1 5.4Zm-25.1-8.9c-5 2.3-10 4.8-14.9 7.5 0 1.9 0 3.8-.3 5.7 4.9-2.7 9.9-5.2 14.9-7.5.3 0 .3-1.9.3-3.7Zm-3.4-12.2c-4.6 3.2-9.2 6.2-13.7 9 0 1.8 0 3.6-.1 5.4-4.5-3.2-9.1-6.2-13.7-9 0-1.8 0-3.6.1-5.4zm7.2-18.6c-5.7 1.4-11.4 2.6-17.1 3.6v8.5c6-1.2 12-2.2 18.1-3 6.1-.8 12.1-1.8 18.1-3v-8.5c-5.7-1-11.4-2.2-17.1-3.6zm12.6-15.1c-5.5 1.6-11 3.4-16.3 5.4 0 2-.2 4-.6 6.1-5.6 2-11.3 3.8-17.1 5.4-5.8-1.6-11.5-3.4-17.1-5.4 0-2 .2-4 .6-6.1 5.3-2 10.8-3.8 16.3-5.4zm20.1-8.9c-5.1 2.3-10.1 4.8-14.9 7.5 0 1.9 0 3.8-.3 5.7-4.9-2.7-9.9-5.2-14.9-7.5h.3zm3.4-12.2c-4.7 2.8-9.3 5.8-13.7 9 0 1.8-.1 3.6-.1 5.4-4.5-3.2-9.1-6.2-13.7-9 0-1.8 0-3.6.1-5.4zm25.1 8.9c5 2.3 10 4.8 14.9 7.5 0 1.9 0 3.8.3 5.7-4.9-2.7-9.9-5.2-14.9-7.5-.3 0-.3-1.9-.3-3.7zm3.4 12.2c4.6 3.2 9.2 6.2 13.7 9 0 1.8 0 3.6-.1 5.4-4.5-3.2-9.1-6.2-13.7-9 0-1.8 0-3.6.1-5.4zm-7.2 18.6c5.7 1.4 11.4 2.6 17.1 3.6 0 2.9.4 5.8.4 8.5-6 1.2-12 2.2-18.1 3-6.1-.8-12.1-1.8-18.1-3 0-2.9-.4-5.8-.4-8.5 6-1.2 12-2.2 18.1-3zm12.6 15.1c5.5 1.6 11 3.4 16.3 5.4 0 2-.2 4-.6 6.1-5.6 2-11.3 3.8-17.1 5.4-5.8-1.6-11.5-3.4-17.1-5.4 0-2 .2-4 .6-6.1 5.3-2 10.8-3.8 16.3-5.4zm20.1 8.9c5.1 2.3 10.1 4.8 14.9 7.5 0 1.9 0 3.8-.3 5.7-4.9-2.7-9.9-5.2-14.9-7.5h.3zm3.4 12.2c4.7 2.8 9.3 5.8 13.7 9 0 1.8-.1 3.6-.1 5.4-4.5-3.2-9.1-6.2-13.7-9 0-1.8 0-3.6.1-5.4zm25.1-8.9c5-2.3 10-4.8 14.9-7.5 0-1.9 0-3.8.3-5.7 4.9 2.7 9.9 5.2 14.9 7.5-.3 0-.3 1.9-.3 3.7zm3.4-12.2c4.6-3.2 9.2-6.2 13.7-9 0-1.8 0-3.6.1-5.4 4.5 3.2 9.1 6.2 13.7 9 0 1.8-.1 3.6-.1 5.4zm7.2-18.6c5.7-1.4 11.4-2.6 17.1-3.6v-8.5c-6 1.2-12 2.2-18.1 3-6.1.8-12.1 1.8-18.1 3v8.5c6-1.2 12-2.2 18.1-3zm-12.6-15.1c5.5-1.6 11-3.4 16.3-5.4 0-2-.2-4-.6-6.1 5.6-2 11.3-3.8 17.1-5.4 5.8 1.6 11.5 3.4 17.1 5.4 0 2-.2 4-.6 6.1-5.3 2-10.8 3.8-16.3 5.4zm-20.1-8.9c5.1-2.3 10.1-4.8 14.9-7.5 0-1.9 0-3.8.3-5.7 4.9 2.7 9.9 5.2 14.9 7.5h-.3zm-3.4-12.2c4.7-2.8 9.3-5.8 13.7-9 0-1.8-.1-3.6-.1-5.4 4.5 3.2 9.1 6.2 13.7 9 0 1.8 0 3.6-.1 5.4zm25.1 8.9c-5-2.3-10-4.8-14.9-7.5 0-1.9 0-3.8-.3-5.7-4.9 2.7-9.9 5.2-14.9 7.5.3 0 .3-1.9 .3-3.7zm3.4 12.2c-4.6-3.2-9.2-6.2-13.7-9 0-1.8 0-3.6.1-5.4-4.5 3.2-9.1 6.2-13.7 9 0 1.8 0 3.6-.1 5.4zm-7.2 18.6c-5.7-1.4-11.4-2.6-17.1-3.6 0-2.9-.4-5.8-.4-8.5 6-1.2 12-2.2 18.1-3 6.1.8 12.1 1.8 18.1 3 0 2.9.4 5.8.4 8.5-6 1.2-12 2.2-18.1 3zm-12.6 15.1c-5.5-1.6-11-3.4-16.3-5.4 0-2-.2-4-.6-6.1-5.6-2-11.3-3.8-17.1-5.4-5.8 1.6-11.5 3.4-17.1 5.4 0 2 .2 4 .6 6.1 5.3 2 10.8 3.8 16.3 5.4zm-20.1 8.9c-5.1-2.3-10.1-4.8-14.9-7.5 0-1.9 0-3.8.3-5.7-4.9-2.7-9.9-5.2-14.9-7.5h.3zm-3.4 12.2c-4.7-2.8-9.3-5.8-13.7-9 0-1.8.1-3.6.1-5.4-4.5-3.2-9.1-6.2-13.7-9 0-1.8 0-3.6-.1-5.4zm25.1-8.9c5-2.3 10-4.8 14.9-7.5 0-1.9 0-3.8-.3-5.7-4.9 2.7-9.9 5.2-14.9 7.5-.3 0-.3 1.9-.3 3.7zm-3.4-12.2c4.6-3.2 9.2-6.2 13.7-9 0-1.8 0-3.6-.1-5.4-4.5 3.2-9.1 6.2-13.7 9 0 1.8 0 3.6.1 5.4zm7.2-18.6c5.7-1.4 11.4-2.6 17.1-3.6v-8.5c-6 1.2-12 2.2-18.1 3-6.1.8-12.1 1.8-18.1 3v8.5c6-1.2 12-2.2 18.1-3zm12.6-15.1c5.5-1.6 11 3.4 16.3-5.4 0-2-.2-4-.6-6.1-5.6-2-11.3-3.8-17.1-5.4-5.8 1.6-11.5 3.4-17.1 5.4 0 2 .2 4 .6 6.1 5.3 2 10.8 3.8 16.3 5.4zm20.1-8.9c5.1-2.3 10.1-4.8 14.9-7.5 0-1.9 0-3.8.3-5.7-4.9-2.7-9.9-5.2-14.9-7.5h-.3zm3.4-12.2c4.7-2.8 9.3-5.8 13.7-9 0-1.8-.1-3.6-.1-5.4-4.5-3.2-9.1-6.2-13.7-9 0-1.8 0-3.6.1 5.4z"></path><circle cx="128" cy="114" r="23" fill="#00D8FF"></circle><path fill="#00D8FF" d="M128 91c-12.7 0-23 10.3-23 23s10.3 23 23 23 23-10.3 23-23-10.3-23-23-23zm0 6c9.4 0 17 7.6 17 17s-7.6 17-17 17-17-7.6-17-17 7.6-17 17-17z"></path><circle cx="128" cy="114" r="5" fill="#00D8FF"></circle></svg>
